# xmcd
#
# Track frame offsets: 
#        180
#        13725
#        40720
#        61190
#        84965
#        105750
#        128920
#        149412
#        173867
#
# Disc length: 2643 seconds
#
# Revision: 2
# Processed by: cddbd v1.5.2PL0 Copyright (c) Steve Scherf et al.
# Submitted via: ExactAudioCopy v0.95b4
#
DISCID=680a5109
DTITLE=Joe Louis Walker - Live At Slim's Volume 2
DYEAR=1992
DGENRE=Blues
TTITLE0=Don't You Know
TTITLE1=Thin Line
TTITLE2=One Woman
TTITLE3=Blue Guitar
TTITLE4=Shade Tree Mechanic
TTITLE5=747
TTITLE6=Just A Little Bit
TTITLE7=Brother Go Ahead And Take Her
TTITLE8=Love At First Sight
EXTD=
EXTT0=
EXTT1=
EXTT2=
EXTT3=
EXTT4=
EXTT5=
EXTT6=
EXTT7=
EXTT8=
PLAYORDER=
